<mxfile host="app.diagrams.net" agent="Mozilla/5.0 (Windows NT 10.0; Win64; x64) AppleWebKit/537.36 (KHTML, like Gecko) Chrome/140.0.0.0 Safari/537.36" version="28.2.2" pages="6">
  <diagram name="Trang-1" id="PcZ1yH8dCEu9IVWSyb4G">
    <mxGraphModel dx="925" dy="491" grid="1" gridSize="10" guides="1" tooltips="1" connect="1" arrows="1" fold="1" page="1" pageScale="1" pageWidth="827" pageHeight="1169" math="0" shadow="0">
      <root>
        <mxCell id="0" />
        <mxCell id="1" parent="0" />
        <mxCell id="1q_WfKXpsbnLnjrL9GfW-1" value="Buyer" style="shape=umlActor;verticalLabelPosition=bottom;verticalAlign=top;html=1;" vertex="1" parent="1">
          <mxGeometry x="100" y="70" width="30" height="60" as="geometry" />
        </mxCell>
        <mxCell id="1q_WfKXpsbnLnjrL9GfW-2" value="SysAdmin" style="shape=umlActor;verticalLabelPosition=bottom;verticalAlign=top;html=1;" vertex="1" parent="1">
          <mxGeometry x="110" y="330" width="30" height="60" as="geometry" />
        </mxCell>
        <mxCell id="1q_WfKXpsbnLnjrL9GfW-3" value="" style="html=1;whiteSpace=wrap;" vertex="1" parent="1">
          <mxGeometry x="200" y="40" width="560" height="470" as="geometry" />
        </mxCell>
        <mxCell id="1q_WfKXpsbnLnjrL9GfW-4" value="get products by filltering and sorting on price and name" style="ellipse;whiteSpace=wrap;html=1;" vertex="1" parent="1">
          <mxGeometry x="240" y="65" width="190" height="70" as="geometry" />
        </mxCell>
        <mxCell id="1q_WfKXpsbnLnjrL9GfW-5" value="create product" style="ellipse;whiteSpace=wrap;html=1;" vertex="1" parent="1">
          <mxGeometry x="540" y="50" width="160" height="70" as="geometry" />
        </mxCell>
        <mxCell id="1q_WfKXpsbnLnjrL9GfW-6" value="get the detail of specific product" style="ellipse;whiteSpace=wrap;html=1;" vertex="1" parent="1">
          <mxGeometry x="240" y="180" width="200" height="70" as="geometry" />
        </mxCell>
        <mxCell id="1q_WfKXpsbnLnjrL9GfW-7" value="get products" style="ellipse;whiteSpace=wrap;html=1;" vertex="1" parent="1">
          <mxGeometry x="540" y="140" width="170" height="70" as="geometry" />
        </mxCell>
        <mxCell id="1q_WfKXpsbnLnjrL9GfW-8" value="product management" style="ellipse;whiteSpace=wrap;html=1;" vertex="1" parent="1">
          <mxGeometry x="235" y="300" width="200" height="70" as="geometry" />
        </mxCell>
        <mxCell id="1q_WfKXpsbnLnjrL9GfW-10" value="delete product" style="ellipse;whiteSpace=wrap;html=1;" vertex="1" parent="1">
          <mxGeometry x="535" y="325" width="175" height="70" as="geometry" />
        </mxCell>
        <mxCell id="1q_WfKXpsbnLnjrL9GfW-11" value="update product with inventory" style="ellipse;whiteSpace=wrap;html=1;" vertex="1" parent="1">
          <mxGeometry x="535" y="410" width="175" height="70" as="geometry" />
        </mxCell>
        <mxCell id="1q_WfKXpsbnLnjrL9GfW-12" value="update product" style="ellipse;whiteSpace=wrap;html=1;" vertex="1" parent="1">
          <mxGeometry x="540" y="230" width="170" height="70" as="geometry" />
        </mxCell>
        <mxCell id="1q_WfKXpsbnLnjrL9GfW-13" value="" style="endArrow=open;endFill=1;endSize=12;html=1;rounded=0;" edge="1" parent="1" target="1q_WfKXpsbnLnjrL9GfW-4">
          <mxGeometry width="160" relative="1" as="geometry">
            <mxPoint x="130" y="100" as="sourcePoint" />
            <mxPoint x="240" y="100" as="targetPoint" />
          </mxGeometry>
        </mxCell>
        <mxCell id="1q_WfKXpsbnLnjrL9GfW-14" value="" style="endArrow=open;endFill=1;endSize=12;html=1;rounded=0;entryX=0;entryY=0.5;entryDx=0;entryDy=0;" edge="1" parent="1" target="1q_WfKXpsbnLnjrL9GfW-6">
          <mxGeometry width="160" relative="1" as="geometry">
            <mxPoint x="130" y="100" as="sourcePoint" />
            <mxPoint x="270" y="100" as="targetPoint" />
          </mxGeometry>
        </mxCell>
        <mxCell id="1q_WfKXpsbnLnjrL9GfW-15" value="" style="endArrow=open;endFill=1;endSize=12;html=1;rounded=0;entryX=0;entryY=0.5;entryDx=0;entryDy=0;" edge="1" parent="1" target="1q_WfKXpsbnLnjrL9GfW-8">
          <mxGeometry width="160" relative="1" as="geometry">
            <mxPoint x="130" y="360" as="sourcePoint" />
            <mxPoint x="290" y="360" as="targetPoint" />
          </mxGeometry>
        </mxCell>
        <mxCell id="1q_WfKXpsbnLnjrL9GfW-16" value="Use" style="endArrow=open;endSize=12;dashed=1;html=1;rounded=0;exitX=1;exitY=0.5;exitDx=0;exitDy=0;entryX=0.025;entryY=0.648;entryDx=0;entryDy=0;entryPerimeter=0;" edge="1" parent="1" source="1q_WfKXpsbnLnjrL9GfW-8" target="1q_WfKXpsbnLnjrL9GfW-5">
          <mxGeometry width="160" relative="1" as="geometry">
            <mxPoint x="390" y="160" as="sourcePoint" />
            <mxPoint x="550" y="160" as="targetPoint" />
          </mxGeometry>
        </mxCell>
        <mxCell id="1q_WfKXpsbnLnjrL9GfW-17" value="Use" style="endArrow=open;endSize=12;dashed=1;html=1;rounded=0;exitX=1;exitY=0.5;exitDx=0;exitDy=0;entryX=0;entryY=0.619;entryDx=0;entryDy=0;entryPerimeter=0;" edge="1" parent="1" source="1q_WfKXpsbnLnjrL9GfW-8" target="1q_WfKXpsbnLnjrL9GfW-7">
          <mxGeometry width="160" relative="1" as="geometry">
            <mxPoint x="460" y="210" as="sourcePoint" />
            <mxPoint x="620" y="210" as="targetPoint" />
          </mxGeometry>
        </mxCell>
        <mxCell id="1q_WfKXpsbnLnjrL9GfW-18" value="Use" style="endArrow=open;endSize=12;dashed=1;html=1;rounded=0;exitX=1;exitY=0.5;exitDx=0;exitDy=0;entryX=0.035;entryY=0.61;entryDx=0;entryDy=0;entryPerimeter=0;" edge="1" parent="1" source="1q_WfKXpsbnLnjrL9GfW-8" target="1q_WfKXpsbnLnjrL9GfW-12">
          <mxGeometry width="160" relative="1" as="geometry">
            <mxPoint x="470" y="250" as="sourcePoint" />
            <mxPoint x="630" y="250" as="targetPoint" />
          </mxGeometry>
        </mxCell>
        <mxCell id="1q_WfKXpsbnLnjrL9GfW-19" value="Use" style="endArrow=open;endSize=12;dashed=1;html=1;rounded=0;exitX=1;exitY=0.5;exitDx=0;exitDy=0;entryX=0.024;entryY=0.395;entryDx=0;entryDy=0;entryPerimeter=0;" edge="1" parent="1" source="1q_WfKXpsbnLnjrL9GfW-8" target="1q_WfKXpsbnLnjrL9GfW-10">
          <mxGeometry width="160" relative="1" as="geometry">
            <mxPoint x="470" y="320" as="sourcePoint" />
            <mxPoint x="630" y="320" as="targetPoint" />
          </mxGeometry>
        </mxCell>
        <mxCell id="1q_WfKXpsbnLnjrL9GfW-20" value="Use" style="endArrow=open;endSize=12;dashed=1;html=1;rounded=0;exitX=1;exitY=0.5;exitDx=0;exitDy=0;entryX=0;entryY=0.5;entryDx=0;entryDy=0;" edge="1" parent="1" source="1q_WfKXpsbnLnjrL9GfW-8" target="1q_WfKXpsbnLnjrL9GfW-11">
          <mxGeometry width="160" relative="1" as="geometry">
            <mxPoint x="470" y="360" as="sourcePoint" />
            <mxPoint x="630" y="360" as="targetPoint" />
          </mxGeometry>
        </mxCell>
        <mxCell id="1q_WfKXpsbnLnjrL9GfW-23" value="&lt;font style=&quot;font-size: 36px;&quot;&gt;USE CASE : PRODUCT CATOLOG&lt;/font&gt;" style="text;html=1;align=center;verticalAlign=middle;resizable=0;points=[];autosize=1;strokeColor=none;fillColor=none;" vertex="1" parent="1">
          <mxGeometry x="160" y="525" width="600" height="60" as="geometry" />
        </mxCell>
      </root>
    </mxGraphModel>
  </diagram>
  <diagram id="m8Z5mIvngoNSYyCSQ6vg" name="Trang-2">
    <mxGraphModel grid="1" page="1" gridSize="10" guides="1" tooltips="1" connect="1" arrows="1" fold="1" pageScale="1" pageWidth="827" pageHeight="1169" math="0" shadow="0">
      <root>
        <mxCell id="0" />
        <mxCell id="1" parent="0" />
        <mxCell id="2UB-ZmikE7gpOC2xZP26-1" value="Buyer" style="shape=umlActor;verticalLabelPosition=bottom;verticalAlign=top;html=1;" vertex="1" parent="1">
          <mxGeometry x="90" y="305" width="30" height="60" as="geometry" />
        </mxCell>
        <mxCell id="2UB-ZmikE7gpOC2xZP26-26" value="" style="edgeStyle=orthogonalEdgeStyle;rounded=0;orthogonalLoop=1;jettySize=auto;html=1;" edge="1" parent="1" source="2UB-ZmikE7gpOC2xZP26-2" target="2UB-ZmikE7gpOC2xZP26-25">
          <mxGeometry relative="1" as="geometry" />
        </mxCell>
        <mxCell id="2UB-ZmikE7gpOC2xZP26-2" value="SysAdmin" style="shape=umlActor;verticalLabelPosition=bottom;verticalAlign=top;html=1;" vertex="1" parent="1">
          <mxGeometry x="90" y="565" width="30" height="60" as="geometry" />
        </mxCell>
        <mxCell id="2UB-ZmikE7gpOC2xZP26-3" value="" style="html=1;whiteSpace=wrap;" vertex="1" parent="1">
          <mxGeometry x="240" y="110" width="430" height="620" as="geometry" />
        </mxCell>
        <mxCell id="2UB-ZmikE7gpOC2xZP26-5" value="create the shopping cart with product" style="ellipse;whiteSpace=wrap;html=1;" vertex="1" parent="1">
          <mxGeometry x="270" y="130" width="150" height="70" as="geometry" />
        </mxCell>
        <mxCell id="2UB-ZmikE7gpOC2xZP26-6" value="update product with inventory" style="ellipse;whiteSpace=wrap;html=1;" vertex="1" parent="1">
          <mxGeometry x="500" y="470" width="140" height="70" as="geometry" />
        </mxCell>
        <mxCell id="2UB-ZmikE7gpOC2xZP26-7" value="update the amount of product in the shopping cart" style="ellipse;whiteSpace=wrap;html=1;" vertex="1" parent="1">
          <mxGeometry x="280" y="300" width="150" height="70" as="geometry" />
        </mxCell>
        <mxCell id="2UB-ZmikE7gpOC2xZP26-8" value="get shopping cart of buyers" style="ellipse;whiteSpace=wrap;html=1;" vertex="1" parent="1">
          <mxGeometry x="290" y="560" width="150" height="70" as="geometry" />
        </mxCell>
        <mxCell id="2UB-ZmikE7gpOC2xZP26-9" value="check out the shopping cart" style="ellipse;whiteSpace=wrap;html=1;" vertex="1" parent="1">
          <mxGeometry x="290" y="470" width="140" height="70" as="geometry" />
        </mxCell>
        <mxCell id="2UB-ZmikE7gpOC2xZP26-10" value="delete product in the shopping cart" style="ellipse;whiteSpace=wrap;html=1;" vertex="1" parent="1">
          <mxGeometry x="280" y="380" width="150" height="70" as="geometry" />
        </mxCell>
        <mxCell id="2UB-ZmikE7gpOC2xZP26-11" value="get shopping cart with product" style="ellipse;whiteSpace=wrap;html=1;" vertex="1" parent="1">
          <mxGeometry x="274" y="220" width="146" height="70" as="geometry" />
        </mxCell>
        <mxCell id="2UB-ZmikE7gpOC2xZP26-12" value="update enabled/disabled shopping cart of buyer" style="ellipse;whiteSpace=wrap;html=1;" vertex="1" parent="1">
          <mxGeometry x="290" y="640" width="150" height="70" as="geometry" />
        </mxCell>
        <mxCell id="2UB-ZmikE7gpOC2xZP26-17" value="Use" style="endArrow=open;endSize=12;dashed=1;html=1;rounded=0;" edge="1" parent="1" source="2UB-ZmikE7gpOC2xZP26-9">
          <mxGeometry width="160" relative="1" as="geometry">
            <mxPoint x="430" y="510" as="sourcePoint" />
            <mxPoint x="500" y="505" as="targetPoint" />
          </mxGeometry>
        </mxCell>
        <mxCell id="2UB-ZmikE7gpOC2xZP26-18" value="" style="endArrow=open;endFill=1;endSize=12;html=1;rounded=0;entryX=0;entryY=0.5;entryDx=0;entryDy=0;" edge="1" parent="1" target="2UB-ZmikE7gpOC2xZP26-5">
          <mxGeometry width="160" relative="1" as="geometry">
            <mxPoint x="130" y="340" as="sourcePoint" />
            <mxPoint x="290" y="340" as="targetPoint" />
          </mxGeometry>
        </mxCell>
        <mxCell id="2UB-ZmikE7gpOC2xZP26-19" value="" style="endArrow=open;endFill=1;endSize=12;html=1;rounded=0;entryX=0;entryY=0.5;entryDx=0;entryDy=0;" edge="1" parent="1" target="2UB-ZmikE7gpOC2xZP26-11">
          <mxGeometry width="160" relative="1" as="geometry">
            <mxPoint x="130" y="340" as="sourcePoint" />
            <mxPoint x="290" y="340" as="targetPoint" />
          </mxGeometry>
        </mxCell>
        <mxCell id="2UB-ZmikE7gpOC2xZP26-20" value="" style="endArrow=open;endFill=1;endSize=12;html=1;rounded=0;entryX=0;entryY=0.5;entryDx=0;entryDy=0;" edge="1" parent="1" target="2UB-ZmikE7gpOC2xZP26-7">
          <mxGeometry width="160" relative="1" as="geometry">
            <mxPoint x="130" y="340" as="sourcePoint" />
            <mxPoint x="290" y="340" as="targetPoint" />
          </mxGeometry>
        </mxCell>
        <mxCell id="2UB-ZmikE7gpOC2xZP26-21" value="" style="endArrow=open;endFill=1;endSize=12;html=1;rounded=0;entryX=0.014;entryY=0.6;entryDx=0;entryDy=0;entryPerimeter=0;" edge="1" parent="1" target="2UB-ZmikE7gpOC2xZP26-10">
          <mxGeometry width="160" relative="1" as="geometry">
            <mxPoint x="130" y="340" as="sourcePoint" />
            <mxPoint x="290" y="360" as="targetPoint" />
          </mxGeometry>
        </mxCell>
        <mxCell id="2UB-ZmikE7gpOC2xZP26-22" value="" style="endArrow=open;endFill=1;endSize=12;html=1;rounded=0;entryX=0;entryY=0.5;entryDx=0;entryDy=0;" edge="1" parent="1" target="2UB-ZmikE7gpOC2xZP26-9">
          <mxGeometry width="160" relative="1" as="geometry">
            <mxPoint x="130" y="340" as="sourcePoint" />
            <mxPoint x="270" y="420" as="targetPoint" />
          </mxGeometry>
        </mxCell>
        <mxCell id="2UB-ZmikE7gpOC2xZP26-23" value="" style="endArrow=open;endFill=1;endSize=12;html=1;rounded=0;" edge="1" parent="1">
          <mxGeometry width="160" relative="1" as="geometry">
            <mxPoint x="140" y="600" as="sourcePoint" />
            <mxPoint x="290" y="600" as="targetPoint" />
          </mxGeometry>
        </mxCell>
        <mxCell id="2UB-ZmikE7gpOC2xZP26-24" value="" style="endArrow=open;endFill=1;endSize=12;html=1;rounded=0;entryX=0;entryY=0.5;entryDx=0;entryDy=0;" edge="1" parent="1" target="2UB-ZmikE7gpOC2xZP26-12">
          <mxGeometry width="160" relative="1" as="geometry">
            <mxPoint x="140" y="600" as="sourcePoint" />
            <mxPoint x="310" y="640" as="targetPoint" />
          </mxGeometry>
        </mxCell>
        <mxCell id="2UB-ZmikE7gpOC2xZP26-25" value="&lt;font style=&quot;font-size: 36px;&quot;&gt;USE CASE: SHOPPING CART&lt;/font&gt;" style="text;html=1;align=center;verticalAlign=middle;resizable=0;points=[];autosize=1;strokeColor=none;fillColor=none;" vertex="1" parent="1">
          <mxGeometry x="130" y="740" width="520" height="60" as="geometry" />
        </mxCell>
      </root>
    </mxGraphModel>
  </diagram>
  <diagram id="SK1o-FNghPkxtS1fYAVz" name="Trang-3">
    <mxGraphModel grid="1" page="1" gridSize="10" guides="1" tooltips="1" connect="1" arrows="1" fold="1" pageScale="1" pageWidth="827" pageHeight="1169" math="0" shadow="0">
      <root>
        <mxCell id="0" />
        <mxCell id="1" parent="0" />
        <mxCell id="VfR_0DsHm3N3mrHthezd-1" value="SysAdmin" style="shape=umlActor;verticalLabelPosition=bottom;verticalAlign=top;html=1;" vertex="1" parent="1">
          <mxGeometry x="110" y="300" width="30" height="60" as="geometry" />
        </mxCell>
        <mxCell id="VfR_0DsHm3N3mrHthezd-2" value="" style="html=1;whiteSpace=wrap;" vertex="1" parent="1">
          <mxGeometry x="200" y="140" width="440" height="530" as="geometry" />
        </mxCell>
        <mxCell id="VfR_0DsHm3N3mrHthezd-3" value="payment process" style="ellipse;whiteSpace=wrap;html=1;" vertex="1" parent="1">
          <mxGeometry x="340" y="180" width="160" height="70" as="geometry" />
        </mxCell>
        <mxCell id="VfR_0DsHm3N3mrHthezd-4" value="process for payment" style="ellipse;whiteSpace=wrap;html=1;" vertex="1" parent="1">
          <mxGeometry x="344" y="440" width="166" height="70" as="geometry" />
        </mxCell>
        <mxCell id="VfR_0DsHm3N3mrHthezd-5" value="validation the item infomation" style="ellipse;whiteSpace=wrap;html=1;" vertex="1" parent="1">
          <mxGeometry x="344" y="310" width="156" height="70" as="geometry" />
        </mxCell>
        <mxCell id="VfR_0DsHm3N3mrHthezd-6" value="send an email" style="ellipse;whiteSpace=wrap;html=1;" vertex="1" parent="1">
          <mxGeometry x="350" y="585" width="160" height="70" as="geometry" />
        </mxCell>
        <mxCell id="VfR_0DsHm3N3mrHthezd-8" value="" style="endArrow=open;endFill=1;endSize=12;html=1;rounded=0;entryX=0;entryY=0.5;entryDx=0;entryDy=0;" edge="1" parent="1" source="VfR_0DsHm3N3mrHthezd-1" target="VfR_0DsHm3N3mrHthezd-3">
          <mxGeometry width="160" relative="1" as="geometry">
            <mxPoint x="160" y="270" as="sourcePoint" />
            <mxPoint x="320" y="270" as="targetPoint" />
          </mxGeometry>
        </mxCell>
        <mxCell id="VfR_0DsHm3N3mrHthezd-9" value="Use" style="endArrow=open;endSize=12;dashed=1;html=1;rounded=0;exitX=0.5;exitY=1;exitDx=0;exitDy=0;entryX=0.5;entryY=0;entryDx=0;entryDy=0;" edge="1" parent="1" source="VfR_0DsHm3N3mrHthezd-3" target="VfR_0DsHm3N3mrHthezd-5">
          <mxGeometry width="160" relative="1" as="geometry">
            <mxPoint x="360" y="280" as="sourcePoint" />
            <mxPoint x="520" y="280" as="targetPoint" />
          </mxGeometry>
        </mxCell>
        <mxCell id="VfR_0DsHm3N3mrHthezd-10" value="Use" style="endArrow=open;endSize=12;dashed=1;html=1;rounded=0;exitX=0.533;exitY=1.017;exitDx=0;exitDy=0;exitPerimeter=0;entryX=0.5;entryY=0;entryDx=0;entryDy=0;" edge="1" parent="1" source="VfR_0DsHm3N3mrHthezd-5" target="VfR_0DsHm3N3mrHthezd-4">
          <mxGeometry width="160" relative="1" as="geometry">
            <mxPoint x="370" y="410" as="sourcePoint" />
            <mxPoint x="530" y="410" as="targetPoint" />
          </mxGeometry>
        </mxCell>
        <mxCell id="VfR_0DsHm3N3mrHthezd-11" value="Use" style="endArrow=open;endSize=12;dashed=1;html=1;rounded=0;exitX=0.5;exitY=1;exitDx=0;exitDy=0;" edge="1" parent="1" source="VfR_0DsHm3N3mrHthezd-4" target="VfR_0DsHm3N3mrHthezd-6">
          <mxGeometry width="160" relative="1" as="geometry">
            <mxPoint x="380" y="550" as="sourcePoint" />
            <mxPoint x="540" y="550" as="targetPoint" />
          </mxGeometry>
        </mxCell>
        <mxCell id="VfR_0DsHm3N3mrHthezd-12" value="&lt;font style=&quot;font-size: 36px;&quot;&gt;USE CASE : PAYMENT PROCESS&lt;/font&gt;" style="text;html=1;align=center;verticalAlign=middle;resizable=0;points=[];autosize=1;strokeColor=none;fillColor=none;" vertex="1" parent="1">
          <mxGeometry x="90" y="693" width="590" height="60" as="geometry" />
        </mxCell>
      </root>
    </mxGraphModel>
  </diagram>
  <diagram id="D5bwmIfxcWm7CpTkJqOG" name="Trang-4">
    <mxGraphModel grid="1" page="1" gridSize="10" guides="1" tooltips="1" connect="1" arrows="1" fold="1" pageScale="1" pageWidth="827" pageHeight="1169" math="0" shadow="0">
      <root>
        <mxCell id="0" />
        <mxCell id="1" parent="0" />
        <mxCell id="1t-jtLVtNR_oAgTPRbqR-1" value="SysAdmin" style="shape=umlActor;verticalLabelPosition=bottom;verticalAlign=top;html=1;" vertex="1" parent="1">
          <mxGeometry x="80" y="280" width="30" height="60" as="geometry" />
        </mxCell>
        <mxCell id="1t-jtLVtNR_oAgTPRbqR-2" value="" style="html=1;whiteSpace=wrap;" vertex="1" parent="1">
          <mxGeometry x="190" y="60" width="500" height="550" as="geometry" />
        </mxCell>
        <mxCell id="1t-jtLVtNR_oAgTPRbqR-3" value="get inventories" style="ellipse;whiteSpace=wrap;html=1;" vertex="1" parent="1">
          <mxGeometry x="460" y="220" width="140" height="70" as="geometry" />
        </mxCell>
        <mxCell id="1t-jtLVtNR_oAgTPRbqR-4" value="inventory management" style="ellipse;whiteSpace=wrap;html=1;" vertex="1" parent="1">
          <mxGeometry x="220" y="290" width="140" height="70" as="geometry" />
        </mxCell>
        <mxCell id="1t-jtLVtNR_oAgTPRbqR-5" value="delete inventory" style="ellipse;whiteSpace=wrap;html=1;" vertex="1" parent="1">
          <mxGeometry x="460" y="500" width="140" height="70" as="geometry" />
        </mxCell>
        <mxCell id="1t-jtLVtNR_oAgTPRbqR-6" value="update inventory" style="ellipse;whiteSpace=wrap;html=1;" vertex="1" parent="1">
          <mxGeometry x="460" y="360" width="140" height="70" as="geometry" />
        </mxCell>
        <mxCell id="1t-jtLVtNR_oAgTPRbqR-7" value="create inventory" style="ellipse;whiteSpace=wrap;html=1;" vertex="1" parent="1">
          <mxGeometry x="460" y="90" width="140" height="70" as="geometry" />
        </mxCell>
        <mxCell id="1t-jtLVtNR_oAgTPRbqR-8" value="" style="endArrow=open;endFill=1;endSize=12;html=1;rounded=0;" edge="1" parent="1">
          <mxGeometry width="160" relative="1" as="geometry">
            <mxPoint x="110" y="320" as="sourcePoint" />
            <mxPoint x="220" y="320" as="targetPoint" />
          </mxGeometry>
        </mxCell>
        <mxCell id="1t-jtLVtNR_oAgTPRbqR-10" value="Use" style="endArrow=open;endSize=12;dashed=1;html=1;rounded=0;exitX=1;exitY=0.5;exitDx=0;exitDy=0;entryX=0;entryY=0.5;entryDx=0;entryDy=0;" edge="1" parent="1" source="1t-jtLVtNR_oAgTPRbqR-4" target="1t-jtLVtNR_oAgTPRbqR-7">
          <mxGeometry width="160" relative="1" as="geometry">
            <mxPoint x="360" y="300" as="sourcePoint" />
            <mxPoint x="520" y="300" as="targetPoint" />
          </mxGeometry>
        </mxCell>
        <mxCell id="1t-jtLVtNR_oAgTPRbqR-11" value="Use" style="endArrow=open;endSize=12;dashed=1;html=1;rounded=0;exitX=1;exitY=0.5;exitDx=0;exitDy=0;entryX=0.01;entryY=0.676;entryDx=0;entryDy=0;entryPerimeter=0;" edge="1" parent="1" source="1t-jtLVtNR_oAgTPRbqR-4" target="1t-jtLVtNR_oAgTPRbqR-3">
          <mxGeometry width="160" relative="1" as="geometry">
            <mxPoint x="410" y="350" as="sourcePoint" />
            <mxPoint x="570" y="350" as="targetPoint" />
          </mxGeometry>
        </mxCell>
        <mxCell id="1t-jtLVtNR_oAgTPRbqR-12" value="Use" style="endArrow=open;endSize=12;dashed=1;html=1;rounded=0;exitX=1;exitY=0.5;exitDx=0;exitDy=0;entryX=0;entryY=0.5;entryDx=0;entryDy=0;" edge="1" parent="1" source="1t-jtLVtNR_oAgTPRbqR-4" target="1t-jtLVtNR_oAgTPRbqR-6">
          <mxGeometry width="160" relative="1" as="geometry">
            <mxPoint x="420" y="410" as="sourcePoint" />
            <mxPoint x="580" y="410" as="targetPoint" />
          </mxGeometry>
        </mxCell>
        <mxCell id="1t-jtLVtNR_oAgTPRbqR-13" value="Use" style="endArrow=open;endSize=12;dashed=1;html=1;rounded=0;entryX=0;entryY=0.5;entryDx=0;entryDy=0;" edge="1" parent="1" target="1t-jtLVtNR_oAgTPRbqR-5">
          <mxGeometry width="160" relative="1" as="geometry">
            <mxPoint x="360" y="320" as="sourcePoint" />
            <mxPoint x="570" y="500" as="targetPoint" />
          </mxGeometry>
        </mxCell>
        <mxCell id="1t-jtLVtNR_oAgTPRbqR-14" value="&lt;font style=&quot;font-size: 36px;&quot;&gt;USE CASE: INVENTORY&lt;/font&gt;" style="text;html=1;align=center;verticalAlign=middle;resizable=0;points=[];autosize=1;strokeColor=none;fillColor=none;" vertex="1" parent="1">
          <mxGeometry x="140" y="633" width="430" height="60" as="geometry" />
        </mxCell>
      </root>
    </mxGraphModel>
  </diagram>
  <diagram id="CWXEGWMzYr5wICGPgygd" name="Trang-5">
    <mxGraphModel grid="1" page="1" gridSize="10" guides="1" tooltips="1" connect="1" arrows="1" fold="1" pageScale="1" pageWidth="827" pageHeight="1169" math="0" shadow="0">
      <root>
        <mxCell id="0" />
        <mxCell id="1" parent="0" />
        <mxCell id="rZE-g25FzGf7AR0HDGnq-1" value="Buyer" style="shape=umlActor;verticalLabelPosition=bottom;verticalAlign=top;html=1;" vertex="1" parent="1">
          <mxGeometry x="140" y="215" width="30" height="60" as="geometry" />
        </mxCell>
        <mxCell id="rZE-g25FzGf7AR0HDGnq-2" value="" style="html=1;whiteSpace=wrap;" vertex="1" parent="1">
          <mxGeometry x="260" y="190" width="250" height="120" as="geometry" />
        </mxCell>
        <mxCell id="rZE-g25FzGf7AR0HDGnq-3" value="create rating for product" style="ellipse;whiteSpace=wrap;html=1;" vertex="1" parent="1">
          <mxGeometry x="320" y="215" width="140" height="70" as="geometry" />
        </mxCell>
        <mxCell id="rZE-g25FzGf7AR0HDGnq-4" value="" style="endArrow=open;endFill=1;endSize=12;html=1;rounded=0;" edge="1" parent="1" target="rZE-g25FzGf7AR0HDGnq-3">
          <mxGeometry width="160" relative="1" as="geometry">
            <mxPoint x="170" y="250" as="sourcePoint" />
            <mxPoint x="330" y="250" as="targetPoint" />
          </mxGeometry>
        </mxCell>
        <mxCell id="rZE-g25FzGf7AR0HDGnq-7" value="&lt;font style=&quot;font-size: 24px;&quot;&gt;USE CASE : RATING&lt;/font&gt;" style="text;html=1;align=center;verticalAlign=middle;resizable=0;points=[];autosize=1;strokeColor=none;fillColor=none;" vertex="1" parent="1">
          <mxGeometry x="200" y="340" width="250" height="40" as="geometry" />
        </mxCell>
      </root>
    </mxGraphModel>
  </diagram>
  <diagram id="TQvelN_KNfuETZAH6xLC" name="Trang-6">
    <mxGraphModel grid="1" page="1" gridSize="10" guides="1" tooltips="1" connect="1" arrows="1" fold="1" pageScale="1" pageWidth="827" pageHeight="1169" math="0" shadow="0">
      <root>
        <mxCell id="0" />
        <mxCell id="1" parent="0" />
        <mxCell id="zXj978xSZVdSG_uo5fPv-1" value="Buyer" style="shape=umlActor;verticalLabelPosition=bottom;verticalAlign=top;html=1;" vertex="1" parent="1">
          <mxGeometry x="150" y="160" width="30" height="60" as="geometry" />
        </mxCell>
        <mxCell id="zXj978xSZVdSG_uo5fPv-2" value="SysAdmin" style="shape=umlActor;verticalLabelPosition=bottom;verticalAlign=top;html=1;" vertex="1" parent="1">
          <mxGeometry x="150" y="330" width="30" height="60" as="geometry" />
        </mxCell>
        <mxCell id="zXj978xSZVdSG_uo5fPv-3" value="" style="html=1;whiteSpace=wrap;" vertex="1" parent="1">
          <mxGeometry x="250" y="160" width="370" height="250" as="geometry" />
        </mxCell>
        <mxCell id="zXj978xSZVdSG_uo5fPv-5" value="log in into the system" style="ellipse;whiteSpace=wrap;html=1;" vertex="1" parent="1">
          <mxGeometry x="330" y="200" width="210" height="70" as="geometry" />
        </mxCell>
        <mxCell id="zXj978xSZVdSG_uo5fPv-6" value="log iout into the system" style="ellipse;whiteSpace=wrap;html=1;" vertex="1" parent="1">
          <mxGeometry x="330" y="320" width="210" height="70" as="geometry" />
        </mxCell>
        <mxCell id="zXj978xSZVdSG_uo5fPv-7" value="" style="endArrow=open;endFill=1;endSize=12;html=1;rounded=0;entryX=0.205;entryY=0.32;entryDx=0;entryDy=0;entryPerimeter=0;" edge="1" parent="1" target="zXj978xSZVdSG_uo5fPv-3">
          <mxGeometry width="160" relative="1" as="geometry">
            <mxPoint x="180" y="200" as="sourcePoint" />
            <mxPoint x="300" y="280" as="targetPoint" />
          </mxGeometry>
        </mxCell>
        <mxCell id="zXj978xSZVdSG_uo5fPv-8" value="" style="endArrow=open;endFill=1;endSize=12;html=1;rounded=0;entryX=0.083;entryY=0.291;entryDx=0;entryDy=0;entryPerimeter=0;" edge="1" parent="1" target="zXj978xSZVdSG_uo5fPv-6">
          <mxGeometry width="160" relative="1" as="geometry">
            <mxPoint x="180" y="200" as="sourcePoint" />
            <mxPoint x="320" y="270" as="targetPoint" />
          </mxGeometry>
        </mxCell>
        <mxCell id="zXj978xSZVdSG_uo5fPv-9" value="" style="endArrow=open;endFill=1;endSize=12;html=1;rounded=0;entryX=0.01;entryY=0.657;entryDx=0;entryDy=0;entryPerimeter=0;" edge="1" parent="1" target="zXj978xSZVdSG_uo5fPv-5">
          <mxGeometry width="160" relative="1" as="geometry">
            <mxPoint x="190" y="360" as="sourcePoint" />
            <mxPoint x="300" y="310" as="targetPoint" />
          </mxGeometry>
        </mxCell>
        <mxCell id="zXj978xSZVdSG_uo5fPv-10" value="" style="endArrow=open;endFill=1;endSize=12;html=1;rounded=0;entryX=0;entryY=0.5;entryDx=0;entryDy=0;" edge="1" parent="1" target="zXj978xSZVdSG_uo5fPv-6">
          <mxGeometry width="160" relative="1" as="geometry">
            <mxPoint x="190" y="360" as="sourcePoint" />
            <mxPoint x="340" y="350" as="targetPoint" />
          </mxGeometry>
        </mxCell>
        <mxCell id="zXj978xSZVdSG_uo5fPv-11" value="&lt;font style=&quot;font-size: 36px;&quot;&gt;USE CASE : ACCESS CONTROL&lt;/font&gt;" style="text;html=1;align=center;verticalAlign=middle;resizable=0;points=[];autosize=1;strokeColor=none;fillColor=none;" vertex="1" parent="1">
          <mxGeometry x="100" y="440" width="570" height="60" as="geometry" />
        </mxCell>
      </root>
    </mxGraphModel>
  </diagram>
</mxfile>
